<?xml version="1.0" encoding="utf-8"?>
<!-- Generator: Adobe Illustrator 16.0.0, SVG Export Plug-In . SVG Version: 6.00 Build 0)  -->
<!DOCTYPE svg PUBLIC "-//W3C//DTD SVG 1.1//EN" "http://www.w3.org/Graphics/SVG/1.1/DTD/svg11.dtd">
<svg version="1.1" id="icons" xmlns="http://www.w3.org/2000/svg" xmlns:xlink="http://www.w3.org/1999/xlink" x="0px" y="0px"
	 width="8px" height="8px" viewBox="0 0 8 8" enable-background="new 0 0 8 8" xml:space="preserve">
<g id="icn_x5F_smiley_x5F_line_x5F_dark">
</g>
<path fill="#FFFFFF" d="M7.823,6.764l-1.921-1.92c0.076-0.123,0.141-0.251,0.199-0.385c0.021-0.05,0.037-0.103,0.056-0.155
	c0.042-0.112,0.077-0.227,0.106-0.345C6.285,3.877,6.303,3.795,6.316,3.71c0.015-0.087,0.021-0.177,0.027-0.267
	C6.35,3.357,6.369,3.275,6.369,3.187c0-1.758-1.426-3.184-3.185-3.184C1.426,0.003,0,1.429,0,3.187c0,1.758,1.426,3.185,3.184,3.185
	c0.141,0,0.275-0.022,0.411-0.042c0.02-0.002,0.04-0.003,0.06-0.006c0.116-0.018,0.228-0.04,0.339-0.069
	c0.072-0.019,0.142-0.042,0.211-0.065C4.332,6.146,4.454,6.098,4.573,6.04c0.075-0.036,0.153-0.069,0.225-0.112l1.931,1.932
	c0.189,0.188,0.496,0.188,0.685,0L7.891,7.38C8.08,7.191,8.012,6.953,7.823,6.764z M3.185,5.436c-1.242,0-2.249-1.006-2.249-2.25
	c0-1.242,1.007-2.248,2.249-2.248c1.242,0,2.249,1.006,2.249,2.248C5.434,4.429,4.426,5.436,3.185,5.436z"/>
</svg>
