<?xml version="1.0" encoding="utf-8"?>
<!-- Generator: Adobe Illustrator 16.0.0, SVG Export Plug-In . SVG Version: 6.00 Build 0)  -->
<!DOCTYPE svg PUBLIC "-//W3C//DTD SVG 1.1//EN" "http://www.w3.org/Graphics/SVG/1.1/DTD/svg11.dtd">
<svg version="1.1" xmlns="http://www.w3.org/2000/svg" xmlns:xlink="http://www.w3.org/1999/xlink" x="0px" y="0px" width="100px"
	 height="100px" viewBox="0 0 100 100" enable-background="new 0 0 100 100" xml:space="preserve">
<g id="Layer_1">
</g>
<g id="Layer_2">
	<g>
		<g id="icn_x5F_smiley_x5F_line_x5F_dark">
		</g>
		<g>
			<path fill="#38464E" d="M51.516,23.348c3.452,0,6.262-3.047,6.262-6.814c0-3.767-2.81-6.812-6.262-6.812
				c-3.47,0-6.289,3.045-6.289,6.812C45.227,20.3,48.046,23.348,51.516,23.348z M61.884,30.434c-1.531-3.427-3.92-5.496-9.781-5.496
				h-1.196c-5.859,0-8.248,2.069-9.781,5.493c-0.771,1.709-2.387,23.074-2.387,23.074c-0.123,1.257,0.713,2.389,1.875,2.521
				c0.076,0.004,0.146,0.011,0.223,0.011c1.068,0,1.986-0.88,2.096-2.058l1.656-18.564l0.408,14.413l-1.21,37.254
				c-0.089,1.479,0.933,2.746,2.283,2.859c0.066,0.004,0.118,0.004,0.171,0.004c1.291,0,2.373-1.067,2.471-2.486l2.801-30.688
				l2.786,30.688c0.094,1.419,1.183,2.486,2.468,2.486c0.05,0,0.107,0,0.172-0.004c1.356-0.111,2.375-1.378,2.286-2.855
				L58.016,49.83l0.413-14.416l1.655,18.564c0.106,1.182,1.023,2.058,2.089,2.058c0.073,0,0.152-0.004,0.227-0.011
				c1.153-0.132,2.001-1.264,1.878-2.518C64.277,53.508,62.656,32.14,61.884,30.434z"/>
		</g>
	</g>
	<g>
		<g id="icn_x5F_smiley_x5F_line_x5F_dark_1_">
		</g>
		<g>
			<path fill="#38464E" d="M24.919,23.561c3.452,0,6.262-3.047,6.262-6.814c0-3.767-2.81-6.812-6.262-6.812
				c-3.47,0-6.289,3.045-6.289,6.812C18.63,20.513,21.449,23.561,24.919,23.561z M35.287,30.647
				c-1.531-3.427-3.92-5.496-9.781-5.496H24.31c-5.859,0-8.248,2.069-9.781,5.493c-0.771,1.709-2.386,23.074-2.386,23.074
				c-0.124,1.257,0.712,2.389,1.875,2.521c0.076,0.004,0.146,0.011,0.223,0.011c1.068,0,1.986-0.88,2.096-2.058l1.656-18.564
				l0.408,14.413l-1.21,37.254c-0.089,1.479,0.933,2.746,2.283,2.859c0.066,0.004,0.118,0.004,0.171,0.004
				c1.291,0,2.373-1.067,2.471-2.486l2.801-30.688l2.786,30.688c0.094,1.419,1.183,2.486,2.468,2.486c0.05,0,0.107,0,0.172-0.004
				c1.356-0.111,2.375-1.378,2.286-2.855l-1.208-37.255l0.413-14.416l1.655,18.564c0.106,1.182,1.023,2.058,2.089,2.058
				c0.073,0,0.152-0.004,0.227-0.011c1.153-0.132,2.001-1.264,1.878-2.518C37.681,53.721,36.06,32.353,35.287,30.647z"/>
		</g>
	</g>
	<g>
		<g id="icn_x5F_smiley_x5F_line_x5F_dark_2_">
		</g>
		<g>
			<path fill="#38464E" d="M76.853,39.812c2.801,0,5.08-2.318,5.08-5.184c0-2.866-2.279-5.183-5.08-5.183
				c-2.814,0-5.102,2.316-5.102,5.183C71.751,37.494,74.038,39.812,76.853,39.812z M85.264,45.204
				c-1.242-2.607-3.18-4.182-7.935-4.182h-0.971c-4.754,0-6.691,1.574-7.936,4.179c-0.626,1.301-1.936,17.554-1.936,17.554
				c-0.101,0.957,0.578,1.817,1.521,1.919c0.062,0.003,0.119,0.007,0.181,0.007c0.867,0,1.611-0.668,1.7-1.564l1.344-14.124
				l0.331,10.966l-0.981,28.343c-0.072,1.124,0.757,2.089,1.853,2.175c0.054,0.003,0.096,0.003,0.139,0.003
				c1.047,0,1.925-0.812,2.004-1.892L76.85,65.24l2.26,23.347c0.076,1.08,0.96,1.892,2.002,1.892c0.041,0,0.087,0,0.14-0.003
				c1.101-0.085,1.927-1.048,1.854-2.172L82.126,59.96l0.335-10.968l1.343,14.124c0.086,0.899,0.83,1.564,1.694,1.564
				c0.06,0,0.124-0.003,0.184-0.007c0.936-0.102,1.624-0.962,1.523-1.916C87.205,62.758,85.891,46.501,85.264,45.204z"/>
		</g>
	</g>
</g>
</svg>
