<?xml version="1.0" encoding="utf-8"?>
<!-- Generator: Adobe Illustrator 16.0.0, SVG Export Plug-In . SVG Version: 6.00 Build 0)  -->
<!DOCTYPE svg PUBLIC "-//W3C//DTD SVG 1.1//EN" "http://www.w3.org/Graphics/SVG/1.1/DTD/svg11.dtd">
<svg version="1.1" id="Layer_1" xmlns="http://www.w3.org/2000/svg" xmlns:xlink="http://www.w3.org/1999/xlink" x="0px" y="0px"
	 width="100px" height="100px" viewBox="0 0 100 100" enable-background="new 0 0 100 100" xml:space="preserve">
<g id="Layer_1_1_">
</g>
<g id="Layer_2">
	<g>
		<g id="icn_x5F_smiley_x5F_line_x5F_dark">
		</g>
		<g>
			<path fill="#37454D" d="M50.516,23.241c3.452,0,6.262-3.047,6.262-6.814c0-3.767-2.811-6.812-6.262-6.812
				c-3.47,0-6.29,3.045-6.29,6.812C44.226,20.194,47.046,23.241,50.516,23.241z M60.884,30.328c-1.53-3.427-3.92-5.496-9.78-5.496
				h-1.194c-5.86,0-8.248,2.069-9.782,5.493c-0.771,1.709-2.386,23.073-2.386,23.073c-0.124,1.258,0.712,2.39,1.875,2.521
				c0.077,0.004,0.146,0.013,0.223,0.013c1.068,0,1.986-0.882,2.096-2.06l1.655-18.564l0.409,14.413l-1.21,37.253
				c-0.089,1.479,0.933,2.745,2.283,2.857c0.066,0.004,0.118,0.004,0.171,0.004c1.291,0,2.374-1.066,2.471-2.484l2.802-30.688
				L53.3,87.352c0.095,1.418,1.185,2.485,2.47,2.485c0.049,0,0.105,0,0.172-0.004c1.354-0.11,2.375-1.378,2.285-2.854L57.02,49.724
				l0.412-14.416l1.654,18.564c0.105,1.183,1.021,2.06,2.089,2.06c0.073,0,0.152-0.006,0.228-0.013
				c1.154-0.132,2.002-1.265,1.88-2.519C63.277,53.4,61.656,32.034,60.884,30.328z"/>
		</g>
	</g>
</g>
</svg>
