<?xml version="1.0" encoding="utf-8"?>
<!-- Generator: Adobe Illustrator 16.0.0, SVG Export Plug-In . SVG Version: 6.00 Build 0)  -->
<!DOCTYPE svg PUBLIC "-//W3C//DTD SVG 1.1//EN" "http://www.w3.org/Graphics/SVG/1.1/DTD/svg11.dtd">
<svg version="1.1" xmlns="http://www.w3.org/2000/svg" xmlns:xlink="http://www.w3.org/1999/xlink" x="0px" y="0px" width="100px"
	 height="100px" viewBox="0 0 100 100" enable-background="new 0 0 100 100" xml:space="preserve">
<g id="Layer_1">
</g>
<g id="Layer_2">
	<g>
		<g id="icn_x5F_smiley_x5F_line_x5F_dark">
		</g>
		<g>
			<path fill="#38464E" d="M50.516,23.241c3.452,0,6.261-3.047,6.261-6.814c0-3.767-2.81-6.812-6.261-6.812
				c-3.47,0-6.29,3.045-6.29,6.812C44.226,20.194,47.046,23.241,50.516,23.241z M60.884,30.328c-1.531-3.427-3.92-5.496-9.781-5.496
				h-1.196c-5.86,0-8.248,2.069-9.782,5.493c-0.771,1.709-2.386,23.074-2.386,23.074c-0.124,1.257,0.712,2.389,1.875,2.521
				c0.077,0.004,0.146,0.011,0.223,0.011c1.068,0,1.986-0.88,2.096-2.058l1.655-18.564l0.409,14.413l-1.21,37.254
				c-0.089,1.479,0.933,2.746,2.283,2.859c0.066,0.004,0.118,0.004,0.171,0.004c1.291,0,2.374-1.067,2.471-2.486l2.8-30.688
				l2.787,30.688c0.094,1.419,1.183,2.486,2.468,2.486c0.05,0,0.107,0,0.172-0.004c1.356-0.111,2.375-1.378,2.286-2.855
				l-1.208-37.255l0.413-14.416l1.655,18.564c0.106,1.182,1.023,2.058,2.089,2.058c0.073,0,0.152-0.004,0.227-0.011
				c1.153-0.132,2.001-1.264,1.878-2.518C63.277,53.401,61.656,32.034,60.884,30.328z"/>
		</g>
	</g>
</g>
</svg>
