<?xml version="1.0" encoding="utf-8"?>
<!-- Generator: Adobe Illustrator 16.0.0, SVG Export Plug-In . SVG Version: 6.00 Build 0)  -->
<!DOCTYPE svg PUBLIC "-//W3C//DTD SVG 1.1//EN" "http://www.w3.org/Graphics/SVG/1.1/DTD/svg11.dtd">
<svg version="1.1" id="Layer_1" xmlns="http://www.w3.org/2000/svg" xmlns:xlink="http://www.w3.org/1999/xlink" x="0px" y="0px"
	 width="100px" height="100px" viewBox="0 0 100 100" enable-background="new 0 0 100 100" xml:space="preserve">
<g id="Layer_1_1_">
</g>
<g id="Layer_2">
	<g>
		<g id="icn_x5F_smiley_x5F_line_x5F_dark">
		</g>
		<g>
			<path fill="#FFFFFF" d="M51.516,23.348c3.452,0,6.262-3.047,6.262-6.814c0-3.767-2.81-6.812-6.262-6.812
				c-3.47,0-6.289,3.045-6.289,6.812C45.227,20.3,48.046,23.348,51.516,23.348z M61.884,30.434c-1.53-3.427-3.92-5.496-9.78-5.496
				h-1.195c-5.859,0-8.248,2.069-9.781,5.493c-0.771,1.709-2.387,23.074-2.387,23.074c-0.123,1.257,0.713,2.39,1.875,2.521
				c0.076,0.004,0.146,0.013,0.223,0.013c1.068,0,1.986-0.88,2.096-2.06l1.656-18.562l0.408,14.413l-1.21,37.254
				c-0.089,1.479,0.933,2.746,2.283,2.858c0.066,0.004,0.118,0.004,0.171,0.004c1.291,0,2.373-1.066,2.471-2.485l2.803-30.688
				L54.3,87.46c0.095,1.419,1.185,2.485,2.47,2.485c0.049,0,0.105,0,0.172-0.004c1.354-0.11,2.375-1.379,2.285-2.854L58.016,49.83
				l0.414-14.416l1.654,18.564c0.105,1.182,1.023,2.058,2.089,2.058c0.073,0,0.152-0.004,0.228-0.011
				c1.152-0.133,2-1.266,1.877-2.52C64.277,53.508,62.656,32.14,61.884,30.434z"/>
		</g>
	</g>
	<g>
		<g id="icn_x5F_smiley_x5F_line_x5F_dark_1_">
		</g>
		<g>
			<path fill="#FFFFFF" d="M24.919,23.561c3.452,0,6.262-3.047,6.262-6.814s-2.81-6.812-6.262-6.812
				c-3.47,0-6.289,3.045-6.289,6.812C18.63,20.513,21.449,23.561,24.919,23.561z M35.287,30.647
				c-1.531-3.427-3.92-5.496-9.781-5.496H24.31c-5.859,0-8.248,2.069-9.781,5.493c-0.771,1.709-2.386,23.074-2.386,23.074
				c-0.124,1.257,0.712,2.39,1.875,2.521c0.076,0.004,0.146,0.011,0.223,0.011c1.068,0,1.986-0.88,2.096-2.059l1.656-18.563
				l0.408,14.413l-1.21,37.254c-0.089,1.479,0.933,2.746,2.283,2.859c0.066,0.004,0.118,0.004,0.171,0.004
				c1.291,0,2.373-1.067,2.471-2.486l2.801-30.688l2.786,30.688c0.094,1.419,1.183,2.486,2.468,2.486c0.05,0,0.107,0,0.172-0.004
				c1.356-0.111,2.375-1.379,2.286-2.855l-1.208-37.255l0.413-14.416l1.655,18.563c0.106,1.183,1.023,2.059,2.089,2.059
				c0.073,0,0.152-0.004,0.227-0.012c1.153-0.131,2.001-1.264,1.878-2.518C37.681,53.721,36.06,32.353,35.287,30.647z"/>
		</g>
	</g>
	<g>
		<g id="icn_x5F_smiley_x5F_line_x5F_dark_2_">
		</g>
		<g>
			<path fill="#FFFFFF" d="M76.854,39.812c2.801,0,5.08-2.318,5.08-5.184c0-2.866-2.279-5.183-5.08-5.183
				c-2.813,0-5.103,2.316-5.103,5.183C71.751,37.494,74.038,39.812,76.854,39.812z M85.264,45.204
				c-1.242-2.607-3.18-4.182-7.935-4.182h-0.972c-4.754,0-6.69,1.574-7.937,4.179c-0.626,1.301-1.937,17.554-1.937,17.554
				c-0.102,0.957,0.578,1.817,1.521,1.919c0.062,0.003,0.119,0.008,0.182,0.008c0.867,0,1.61-0.668,1.701-1.563l1.344-14.124
				l0.33,10.966l-0.98,28.343c-0.072,1.124,0.757,2.09,1.854,2.176c0.055,0.004,0.097,0.004,0.14,0.004
				c1.047,0,1.925-0.812,2.004-1.894L76.85,65.24l2.26,23.347c0.076,1.08,0.961,1.892,2.002,1.892c0.041,0,0.089,0,0.142-0.002
				c1.103-0.086,1.929-1.049,1.854-2.172L82.126,59.96l0.335-10.968l1.344,14.124c0.086,0.899,0.829,1.563,1.693,1.563
				c0.061,0,0.124-0.004,0.184-0.008c0.938-0.104,1.625-0.962,1.523-1.916C87.205,62.758,85.891,46.501,85.264,45.204z"/>
		</g>
	</g>
</g>
</svg>
