<?xml version="1.0" encoding="utf-8"?>
<!-- Generator: Adobe Illustrator 16.0.0, SVG Export Plug-In . SVG Version: 6.00 Build 0)  -->
<!DOCTYPE svg PUBLIC "-//W3C//DTD SVG 1.1//EN" "http://www.w3.org/Graphics/SVG/1.1/DTD/svg11.dtd">
<svg version="1.1" id="Layer_1" xmlns="http://www.w3.org/2000/svg" xmlns:xlink="http://www.w3.org/1999/xlink" x="0px" y="0px"
	 width="100px" height="100px" viewBox="0 0 100 100" enable-background="new 0 0 100 100" xml:space="preserve">
<g id="Layer_1_1_">
</g>
<g id="icn_x5F_smiley_x5F_line_x5F_dark">
</g>
<g>
	<path fill="#0F0F0F" d="M72.702,55.214c-3.381-7.355-8.661-11.795-21.609-11.795h-2.638c-12.948,0-18.224,4.439-21.613,11.788
		c-1.098,2.365-2.969,22.241-4.162,36.082h9.483l2.33-25.388l0.742,25.388h29.093l0.749-25.388l2.33,25.388h9.473
		C75.68,77.448,73.803,57.572,72.702,55.214z"/>
	<path fill="#0F0F0F" d="M63.628,25.38c0-8.083-6.208-14.618-13.833-14.618c-7.666,0-13.896,6.535-13.896,14.618
		c0,8.084,6.23,14.625,13.896,14.625C57.422,40.005,63.628,33.465,63.628,25.38z"/>
</g>
</svg>
