<?xml version="1.0" encoding="utf-8"?>
<!-- Generator: Adobe Illustrator 16.0.0, SVG Export Plug-In . SVG Version: 6.00 Build 0)  -->
<!DOCTYPE svg PUBLIC "-//W3C//DTD SVG 1.1//EN" "http://www.w3.org/Graphics/SVG/1.1/DTD/svg11.dtd">
<svg version="1.1" id="Layer_1" xmlns="http://www.w3.org/2000/svg" xmlns:xlink="http://www.w3.org/1999/xlink" x="0px" y="0px"
	 width="100px" height="100px" viewBox="0 0 100 100" enable-background="new 0 0 100 100" xml:space="preserve">
<g id="Layer_1_1_">
</g>
<g id="Layer_2">
	<g>
		<g id="icn_x5F_smiley_x5F_line_x5F_dark">
		</g>
		<g>
			<path fill="#FFFFFF" d="M64.516,23.348c3.452,0,6.262-3.047,6.262-6.814c0-3.767-2.81-6.812-6.262-6.812
				c-3.47,0-6.289,3.045-6.289,6.812C58.227,20.3,61.046,23.348,64.516,23.348z M74.884,30.434c-1.53-3.427-3.92-5.496-9.78-5.496
				h-1.195c-5.859,0-8.248,2.069-9.781,5.493c-0.771,1.709-2.387,23.074-2.387,23.074c-0.123,1.257,0.713,2.39,1.875,2.521
				c0.074,0.004,0.146,0.013,0.223,0.013c1.066,0,1.986-0.88,2.098-2.06l1.654-18.562l0.408,14.413l-1.21,37.254
				c-0.089,1.479,0.935,2.746,2.282,2.858c0.066,0.004,0.117,0.004,0.172,0.004c1.291,0,2.373-1.066,2.471-2.485l2.803-30.688
				L67.3,87.46c0.095,1.419,1.185,2.485,2.47,2.485c0.049,0,0.105,0,0.172-0.004c1.354-0.11,2.375-1.379,2.285-2.854L71.016,49.83
				l0.414-14.416l1.654,18.564c0.105,1.182,1.023,2.058,2.089,2.058c0.073,0,0.152-0.004,0.228-0.011
				c1.152-0.133,2-1.266,1.877-2.52C77.277,53.508,75.656,32.14,74.884,30.434z"/>
		</g>
	</g>
	<g>
		<g id="icn_x5F_smiley_x5F_line_x5F_dark_1_">
		</g>
		<g>
			<path fill="#FFFFFF" d="M37.919,23.561c3.452,0,6.262-3.047,6.262-6.814s-2.81-6.812-6.262-6.812
				c-3.47,0-6.289,3.045-6.289,6.812C31.63,20.513,34.449,23.561,37.919,23.561z M48.287,30.647
				c-1.531-3.427-3.92-5.496-9.781-5.496H37.31c-5.859,0-8.248,2.069-9.781,5.493c-0.771,1.709-2.386,23.074-2.386,23.074
				c-0.124,1.257,0.712,2.39,1.875,2.521c0.076,0.004,0.146,0.011,0.223,0.011c1.068,0,1.986-0.88,2.096-2.059l1.656-18.563
				l0.408,14.413l-1.21,37.254c-0.089,1.479,0.933,2.746,2.283,2.859c0.066,0.004,0.118,0.004,0.171,0.004
				c1.291,0,2.373-1.067,2.471-2.486l2.801-30.688l2.786,30.688c0.094,1.419,1.183,2.486,2.468,2.486c0.05,0,0.107,0,0.172-0.004
				c1.356-0.111,2.375-1.379,2.286-2.855l-1.208-37.255l0.413-14.416l1.655,18.563c0.106,1.183,1.023,2.059,2.089,2.059
				c0.073,0,0.152-0.004,0.227-0.012c1.153-0.131,2.001-1.264,1.878-2.518C50.682,53.721,49.06,32.353,48.287,30.647z"/>
		</g>
	</g>
</g>
</svg>
